<svg xmlns="http://www.w3.org/2000/svg" xmlns:xlink="http://www.w3.org/1999/xlink" viewBox="0 0 325.02 322.33"><defs><style>.cls-1{fill:url(#Безымянный_градиент_12);}</style><linearGradient id="Безымянный_градиент_12" x1="55.31" y1="253.62" x2="269.31" y2="68.84" gradientUnits="userSpaceOnUse"><stop offset="0" stop-color="#2f2975"/><stop offset="1" stop-color="#f1295b"/></linearGradient></defs><title>icon_2</title><g id="Слой_2" data-name="Слой 2"><g id="Слой_2-2" data-name="Слой 2"><path class="cls-1" d="M295.94,92.29l-63.21-63.2a99.29,99.29,0,0,0-140.44,0l-63.2,63.2a99.29,99.29,0,0,0,0,140.44l44.42,44.43V216.51a4,4,0,0,1,4-4h38a4,4,0,0,1,4,4V251.1l-15,27.71h15v36.44a98.58,98.58,0,0,0,20,7.06v-43.5h15l-15-27.25V166.51a4,4,0,0,1,4-4h38a4,4,0,0,1,4,4v43.32l-15,26h15v86.52a98.26,98.26,0,0,0,20-7.09V235.81h15l-15-26V116.51a4,4,0,0,1,4-4h38a4,4,0,0,1,4,4V277.16l44.43-44.43A99.31,99.31,0,0,0,295.94,92.29Z"/></g></g></svg>